<svg width="32" height="32" viewBox="0 0 32 32" fill="none" xmlns="http://www.w3.org/2000/svg">
<path d="M25.3333 4.00016H19.76C19.2 2.4535 17.7333 1.3335 16 1.3335C14.2667 1.3335 12.8 2.4535 12.24 4.00016H6.66667C5.2 4.00016 4 5.20016 4 6.66683V25.3335C4 26.8002 5.2 28.0002 6.66667 28.0002H25.3333C26.8 28.0002 28 26.8002 28 25.3335V6.66683C28 5.20016 26.8 4.00016 25.3333 4.00016ZM16 4.00016C16.7333 4.00016 17.3333 4.60016 17.3333 5.3335C17.3333 6.06683 16.7333 6.66683 16 6.66683C15.2667 6.66683 14.6667 6.06683 14.6667 5.3335C14.6667 4.60016 15.2667 4.00016 16 4.00016ZM16 9.3335C18.2133 9.3335 20 11.1202 20 13.3335C20 15.5468 18.2133 17.3335 16 17.3335C13.7867 17.3335 12 15.5468 12 13.3335C12 11.1202 13.7867 9.3335 16 9.3335ZM24 25.3335H8V23.4668C8 20.8002 13.3333 19.3335 16 19.3335C18.6667 19.3335 24 20.8002 24 23.4668V25.3335Z" fill="#FF3214"/>
</svg>
