<svg width="32" height="32" viewBox="0 0 32 32" fill="none" xmlns="http://www.w3.org/2000/svg">
<path d="M18.0002 0.893311C18.0002 0.893311 18.9868 4.42664 18.9868 7.29331C18.9868 10.04 17.1868 12.2666 14.4402 12.2666C11.6802 12.2666 9.60016 10.04 9.60016 7.29331L9.64016 6.81331C6.94683 10.0133 5.3335 14.16 5.3335 18.6666C5.3335 24.56 10.1068 29.3333 16.0002 29.3333C21.8935 29.3333 26.6668 24.56 26.6668 18.6666C26.6668 11.48 23.2135 5.06664 18.0002 0.893311ZM15.6135 25.3333C13.2402 25.3333 11.3202 23.4666 11.3202 21.1466C11.3202 18.9866 12.7202 17.4666 15.0668 16.9866C17.4268 16.5066 19.8668 15.3733 21.2268 13.5466C21.7468 15.2666 22.0135 17.08 22.0135 18.9333C22.0135 22.4666 19.1468 25.3333 15.6135 25.3333Z" fill="#FF3214"/>
</svg>
