<svg width="93" height="43" viewBox="0 0 93 43" fill="none" xmlns="http://www.w3.org/2000/svg">
<path d="M55.4311 16.8592H51.438V14.3145H62.2816V16.8592H58.3089V28.6775H55.4311V16.8592Z" fill="white"/>
<path d="M70.0061 24.2043L67.2095 19.4848V28.6768H64.4326V14.3154H67.2095L70.9394 20.6545L74.6691 14.3154H77.3651V28.6768H74.5864V19.4848L71.7899 24.2043H70.0061Z" fill="white"/>
<path d="M88.8386 14.3154L85.8795 18.933L83.1031 14.3154H80.1641V15.2805L84.0956 21.2096L79.7581 27.7133V28.6768H82.5159L85.8206 23.5473L89.0822 28.6768H92.0017V27.7133L87.6232 21.1892L91.5957 15.2805V14.3154H88.8386Z" fill="white"/>
<path d="M43.2289 20.3228C43.2248 20.2405 43.215 20.1598 43.21 20.0775C43.1895 19.7669 43.1649 19.4564 43.1313 19.1491C43.1215 19.0561 43.1075 18.964 43.0952 18.872C43.0591 18.5744 43.019 18.2794 42.9705 17.9867C42.9558 17.8971 42.9385 17.8082 42.9222 17.7194C42.8697 17.4235 42.8115 17.1293 42.7466 16.8382C42.7384 16.8024 42.7303 16.7673 42.7221 16.7314H35.2294C35.2409 16.7649 35.2508 16.7983 35.2623 16.8317C35.4165 17.2776 35.5493 17.7324 35.66 18.1962C35.6855 18.3038 35.7117 18.4122 35.7346 18.5207C35.7552 18.616 35.7732 18.7121 35.7913 18.8084C35.8159 18.938 35.8404 19.0675 35.8618 19.1988C35.8749 19.2827 35.888 19.3675 35.8995 19.4514C35.9216 19.6031 35.9413 19.7563 35.9585 19.9096C35.9659 19.9764 35.9733 20.0433 35.9807 20.1101C35.9996 20.3049 36.0143 20.4997 36.025 20.6961C36.0266 20.7247 36.0291 20.7524 36.0308 20.7809C36.0422 21.0189 36.0488 21.2586 36.0488 21.499C36.0488 29.4138 29.5936 35.8311 21.6303 35.8311C18.6934 35.8311 15.9616 34.9557 13.6833 33.4567H21.6278C28.2659 33.4567 33.6466 28.1071 33.6466 21.5105C33.6466 19.8118 33.2891 18.1954 32.6461 16.7323H27.0012C28.1436 18.0006 28.8399 19.6748 28.8399 21.5105C28.8399 25.4686 25.6111 28.6785 21.6278 28.6785H12.0127H9.153H9.13496H1.23804C4.21096 37.022 12.217 43 21.6303 43C33.5753 43 43.2592 33.376 43.2625 21.5055C43.2625 21.1078 43.2502 20.7141 43.2289 20.3228Z" fill="white"/>
<path d="M21.6265 0C11.9245 0 3.71431 6.34807 0.971021 15.0934C0.340349 17.1116 0 19.2577 0 21.4822C0 23.1255 0.186167 24.7247 0.537177 26.2612H8.0265C7.49837 24.7712 7.208 23.1695 7.208 21.4993C7.208 20.5073 7.3097 19.5382 7.50247 18.6024C8.85075 12.0767 14.6621 7.16887 21.6265 7.16887C24.5593 7.16887 27.2861 8.0419 29.5628 9.53678H21.6347C14.9967 9.53678 9.61505 14.8856 9.61505 21.4822C9.61505 23.1817 9.97349 24.7981 10.6164 26.2612H16.2613C15.1181 24.9929 14.4226 23.3187 14.4226 21.4822C14.4226 17.5249 17.6514 14.315 21.6347 14.315H31.2498H34.1005H34.1276H42.0163C39.0417 5.97556 31.0382 0 21.6265 0Z" fill="white"/>
</svg>
